<?xml version="1.0" encoding="utf-8"?>
<svg viewBox="0 0 500 500" xmlns="http://www.w3.org/2000/svg">
  <g transform="matrix(0.1, 0, 0, -0.1, -18.180376, 497.165497)" fill="#000000" stroke="none">
    <path stroke-width="0" d="M 2500.664 4355.035 C 2594.384 4357.275 2795.164 4330.445 2932.474 4282.305 C 3071.884 4233.445 3290.494 4092.645 3330.204 4061.855 C 3341.484 4053.105 3337.214 4050.185 3341.574 4045.945 C 3345.624 4041.995 3349.984 4042.095 3355.204 4036.855 C 3363.394 4028.645 3371.474 4009.895 3384.754 3995.945 C 3400.894 3978.975 3433.874 3957.955 3448.384 3943.675 C 3458.374 3933.855 3459.754 3928.125 3468.844 3918.675 C 3480.814 3906.215 3496.464 3898.945 3516.574 3875.495 C 3550.694 3835.685 3615.364 3718.495 3655.204 3677.765 C 3681.454 3650.925 3705.534 3652.025 3725.664 3630.035 C 3747.964 3605.675 3764.414 3572.125 3780.204 3534.585 C 3798.604 3490.835 3812.774 3439.465 3825.664 3380.035 C 3840.984 3309.395 3855.664 3223.145 3862.024 3134.585 C 3869.054 3036.755 3867.884 2889.745 3862.024 2816.395 C 3858.314 2769.935 3858.054 2752.795 3843.844 2716.395 C 3826.154 2671.135 3760.114 2608.655 3752.934 2566.395 C 3747.564 2534.785 3779.224 2514.605 3775.664 2484.585 C 3771.364 2448.425 3741.364 2397.745 3714.294 2364.125 C 3687.974 2331.435 3649.814 2324.535 3616.574 2284.585 C 3570.874 2229.665 3542.434 2138.605 3475.664 2043.675 C 3384.524 1914.105 3138.584 1622.415 3091.574 1573.215 C 3078.254 1559.285 3084.474 1570.955 3071.114 1557.305 C 3024.784 1509.975 2760.244 1176.625 2696.114 1114.125 C 2670.484 1089.145 2662.344 1094.955 2648.384 1080.035 C 2633.194 1063.795 2625.884 1034.375 2609.754 1018.675 C 2594.484 1003.815 2576.054 993.045 2555.204 986.855 C 2532.584 980.145 2503.334 976.835 2477.934 982.305 C 2451.014 988.105 2423.494 1003.365 2398.384 1023.215 C 2370.074 1045.615 2344.024 1089.125 2318.844 1114.125 C 2297.424 1135.385 2283.774 1139.635 2257.474 1166.395 C 2215.084 1209.545 2109.484 1346.975 2084.754 1368.675 C 2076.874 1375.585 2081.114 1365.655 2071.114 1375.495 C 2016.594 1429.165 1558.324 1997.725 1421.114 2211.855 C 1330.054 2353.975 1294.864 2456.365 1252.934 2552.765 C 1219.954 2628.575 1199.604 2686.635 1180.204 2748.215 C 1162.574 2804.195 1147.794 2848.325 1139.294 2907.305 C 1129.704 2973.955 1123.684 3049.295 1130.204 3130.035 C 1137.604 3221.665 1166.394 3369.375 1189.294 3430.035 C 1202.604 3465.305 1220.374 3482.325 1232.474 3495.945 C 1240.234 3504.675 1245.704 3500.365 1252.934 3511.855 C 1267.844 3535.545 1269.394 3598.885 1302.934 3661.855 C 1355.174 3759.935 1504.164 3985.335 1582.474 4050.495 C 1629.504 4089.625 1683.264 4081.015 1707.474 4098.215 C 1722.754 4109.065 1719.194 4121.515 1732.474 4132.305 C 1750.574 4147.005 1778.564 4162.045 1814.294 4173.215 C 1862.524 4188.305 1961.474 4189.375 2005.204 4205.035 C 2034.734 4215.615 2054.944 4233.255 2066.574 4243.675 C 2073.454 4249.835 2070.564 4253.715 2077.934 4259.585 C 2090.964 4269.955 2115.754 4286.265 2150.664 4295.945 C 2204.284 4310.815 2324.554 4311.305 2387.024 4323.215 C 2434.214 4332.215 2445.194 4353.705 2500.664 4355.035 Z M 2443.844 4027.765 C 2332.654 4008.135 2053.214 3911.585 2002.934 3882.305 C 1986.324 3872.635 1998.654 3872.455 1984.754 3859.585 C 1945.924 3823.625 1748.054 3712.365 1684.754 3627.765 C 1631.894 3557.115 1631.694 3444.605 1602.934 3400.495 C 1585.314 3373.455 1559.444 3383.745 1548.384 3355.035 C 1529.834 3306.855 1545.834 3141.125 1552.934 3095.945 C 1556.254 3074.805 1564.074 3074.085 1566.574 3059.585 C 1569.614 3041.905 1570.894 3020.145 1566.574 2995.945 C 1561.174 2965.745 1548.004 2917.885 1530.204 2891.395 C 1514.774 2868.445 1473.944 2876.205 1471.114 2841.395 C 1465.054 2766.905 1616.674 2481.385 1684.754 2368.675 C 1733.314 2288.275 1793.614 2210.735 1825.664 2195.945 C 1841.364 2188.695 1845.574 2206.205 1862.024 2205.035 C 1887.774 2203.205 1951.164 2182.595 1971.114 2168.675 C 1983.194 2160.245 1979.324 2150.365 1989.294 2141.395 C 2003.054 2129.035 2022.574 2116.325 2052.934 2105.035 C 2098.754 2087.995 2175.844 2071.285 2252.934 2059.585 C 2345.484 2045.525 2512.524 2048.105 2575.664 2032.305 C 2610.094 2023.695 2623.814 2013.885 2639.294 2000.495 C 2652.654 1988.935 2646.224 1963.035 2666.574 1959.585 C 2706.994 1952.725 2850.054 2019.945 2921.114 2059.585 C 2983.124 2094.175 3032.134 2153.935 3075.664 2177.765 C 3107.094 2194.975 3133.894 2203.035 3157.474 2205.035 C 3176.564 2206.655 3188.374 2184.435 3207.474 2195.945 C 3245.024 2218.565 3325.794 2373.895 3348.384 2432.305 C 3362.674 2469.235 3352.454 2489.205 3362.024 2518.675 C 3372.574 2551.185 3388.004 2578.515 3412.024 2618.675 C 3445.074 2673.935 3528.744 2748.005 3552.934 2823.215 C 3577.014 2898.075 3557.154 3042.465 3557.474 3068.675 C 3557.564 3075.685 3558.174 3070.575 3557.474 3077.765 C 3554.734 3106.275 3542.754 3319.955 3516.574 3359.585 C 3503.184 3379.835 3487.024 3358.595 3466.574 3377.765 C 3423.084 3418.515 3318.304 3635.665 3284.754 3677.765 C 3271.334 3694.605 3264.024 3696.075 3257.474 3700.495 C 3253.514 3703.165 3253.134 3701.355 3248.384 3705.035 C 3237.024 3713.845 3201.024 3752.395 3184.754 3768.675 C 3173.154 3780.265 3167.594 3785.265 3157.474 3795.945 C 3145.324 3808.795 3142.644 3822.425 3116.574 3841.395 C 3064.554 3879.235 2901.644 3970.635 2812.024 4000.495 C 2740.894 4024.185 2683.474 4023.295 2621.114 4027.765 C 2560.824 4032.085 2519.494 4041.115 2443.844 4027.765 Z" style="stroke-width: 2px; stroke: rgb(64, 152, 172); fill: rgb(64, 165, 99);"/>
    <path stroke="rgb(255,0,0)" stroke-width="0" d="M 3468.634 2877.145 C 3468.474 2873.615 3467.944 2871.855 3467.264 2870.515 C 3463.754 2804.355 3430.864 2699.395 3412.964 2640.225 C 3398.464 2592.295 3384.184 2552.815 3367.514 2526.595 C 3355.434 2507.595 3347.394 2498.285 3328.874 2487.955 C 3327.704 2487.305 3326.484 2486.635 3325.214 2485.975 C 3321.634 2467.535 3314.534 2448.315 3303.924 2430.995 C 3290.564 2409.165 3273.524 2391.065 3247.114 2369.635 C 3228.324 2354.395 3200.264 2333.585 3171.724 2315.325 C 3168.594 2309.415 3165.094 2303.435 3161.294 2297.275 C 3140.524 2263.655 3099.334 2223.645 3063.564 2195.005 C 3028.724 2167.105 2988.644 2144.405 2949.934 2126.825 C 2912.814 2109.965 2893.164 2101.355 2836.294 2090.455 C 2738.224 2071.665 2500.854 2040.985 2372.664 2045.005 C 2271.364 2048.185 2176.974 2069.105 2118.114 2090.455 C 2078.024 2105.005 2065.084 2116.355 2034.024 2142.735 C 1991.874 2178.525 1942.714 2246.715 1890.844 2299.545 C 1835.684 2355.735 1757.634 2407.135 1711.294 2470.005 C 1667.294 2529.705 1639.394 2581.865 1615.844 2665.455 C 1585.034 2774.805 1564.854 2958.445 1565.844 3088.185 C 1566.734 3204.785 1580.344 3330.275 1611.294 3410.915 C 1635.204 3473.205 1696.174 3532.845 1711.294 3549.545 C 1716.404 3555.195 1714.874 3551.555 1720.384 3556.365 C 1735.374 3569.445 1799.214 3629.645 1820.384 3651.825 C 1833.114 3665.155 1828.584 3667.655 1845.384 3681.365 C 1882.144 3711.355 1982.894 3780.095 2077.204 3826.825 C 2192.604 3883.995 2386.484 3974.645 2499.934 3990.455 C 2582.744 4002.005 2635.134 3979.075 2704.474 3963.185 C 2777.434 3946.465 2860.574 3919.355 2927.204 3890.455 C 2988.114 3864.045 3047.424 3830.035 3090.844 3799.545 C 3126.284 3774.665 3162.884 3735.775 3174.934 3724.545 C 3179.444 3720.345 3177.654 3722.155 3181.754 3717.735 C 3192.324 3706.315 3239.354 3651.875 3249.934 3640.455 C 3254.034 3636.035 3252.464 3638.565 3256.754 3633.645 C 3269.434 3619.045 3316.054 3569.785 3347.664 3520.005 C 3389.344 3454.345 3455.864 3335.905 3479.474 3260.915 C 3497.864 3202.505 3505.014 3151.635 3497.664 3106.365 C 3491.744 3069.985 3471.204 3031.785 3452.044 3007.495 C 3464.184 2960.055 3469.504 2897.365 3468.634 2877.145 Z M 2937.934 2873.755 C 2950.274 2901.175 2965.684 2919.705 2982.024 2933.985 C 2981.884 2934.365 2981.744 2934.745 2981.604 2935.135 C 2978.804 2942.825 2976.044 2952.985 2973.454 2964.275 C 2963.094 2970.225 2953.344 2977.365 2944.964 2985.755 C 2920.874 3009.875 2900.854 3053.815 2890.414 3088.025 C 2880.734 3119.735 2880.214 3153.695 2881.324 3183.485 C 2882.344 3210.965 2885.314 3237.485 2894.964 3260.755 C 2896.734 3265.025 2898.694 3269.285 2900.834 3273.485 C 2893.544 3286.595 2890.134 3300.515 2887.074 3314.415 C 2882.594 3334.785 2881.224 3353.245 2887.074 3378.045 C 2894.874 3411.075 2922.694 3468.285 2941.624 3496.225 C 2945.214 3501.525 2948.694 3506.235 2952.164 3510.475 C 2943.834 3519.925 2935.324 3528.865 2927.204 3535.915 C 2898.714 3560.645 2877.044 3578.985 2831.754 3599.545 C 2828.774 3600.895 2825.684 3602.305 2822.484 3603.775 C 2822.114 3598.755 2821.434 3593.685 2820.384 3588.575 C 2814.904 3561.745 2799.364 3525.445 2779.474 3504.485 C 2760.294 3484.275 2737.134 3472.815 2704.474 3463.575 C 2672.504 3454.525 2621.064 3446.945 2577.304 3446.985 C 2538.694 3419.915 2465.624 3391.665 2410.684 3374.155 C 2404.184 3366.175 2396.624 3358.595 2387.804 3351.745 C 2361.664 3331.445 2312.044 3308.805 2259.494 3289.795 C 2241.594 3231.585 2176.934 3100.225 2148.174 3057.045 C 2137.414 3040.895 2129.444 3032.215 2120.764 3025.165 C 2123.144 3019.965 2125.254 3014.635 2127.094 3009.245 C 2134.174 2988.505 2136.654 2955.925 2136.194 2941.065 C 2135.914 2932.225 2132.094 2930.815 2131.644 2922.885 C 2130.994 2911.545 2138.234 2894.305 2136.194 2877.425 C 2133.734 2857.185 2124.854 2828.855 2113.464 2809.245 C 2112.594 2807.745 2111.694 2806.265 2110.764 2804.785 C 2128.674 2796.785 2144.974 2787.135 2155.984 2777.815 C 2176.864 2760.155 2185.604 2734.725 2192.354 2711.905 C 2198.844 2689.965 2202.704 2667.935 2196.894 2643.725 C 2193.894 2631.235 2187.754 2616.085 2180.014 2601.205 C 2223.284 2574.095 2274.984 2535.845 2287.804 2525.975 C 2293.194 2521.815 2291.224 2523.415 2294.624 2519.155 C 2298.494 2514.305 2306.574 2505.035 2314.584 2494.215 C 2334.484 2510.245 2360.304 2520.655 2393.544 2530.945 C 2446.134 2547.225 2547.964 2558.295 2602.634 2562.755 C 2642.404 2566.005 2668.064 2569.665 2698.094 2562.755 C 2698.104 2562.755 2698.114 2562.745 2698.124 2562.745 C 2734.004 2599.265 2810.234 2638.165 2854.504 2659.905 C 2868.604 2666.825 2881.824 2672.905 2894.334 2677.875 C 2900.894 2733.335 2918.184 2829.905 2937.934 2873.755 Z" style="stroke: rgb(129, 151, 57); stroke-width: 2px; fill: rgb(208, 200, 124);"/>
    <path d="M2290 4455 c-304 -52 -561 -182 -782 -394 -274 -263 -431 -605 -454 -988 -23 -396 253 -934 837 -1626 74 -87 144 -171 157 -187 l23 -28 -78 -7 c-442 -37 -709 -112 -773 -218 -79 -129 79 -237 432 -298 222 -38 389 -51 754 -56 909 -14 1444 95 1444 294 0 136 -248 228 -740 274 -69 6 -126 12 -127 13 -1 1 52 64 118 141 476 555 779 1046 871 1412 29 115 31 342 4 478 -90 456 -376 840 -778 1045 -134 68 -300 123 -438 145 -115 18 -364 18 -470 0z m565 -184 c301 -78 585 -278 754 -532 105 -156 163 -292 202 -469 33 -149 33 -350 1 -470 -81 -300 -329 -710 -711 -1174 -155 -189 -320 -376 -447 -505 -97 -99 -114 -112 -135 -106 -32 10 -102 79 -279 275 -617 688 -964 1236 -1020 1615 -8 49 -10 117 -6 175 39 542 388 994 900 1165 163 55 236 65 441 61 163 -3 191 -6 300 -35z m-545 -3290 c85 -89 101 -101 152 -116 107 -31 170 -4 290 124 l85 90 144 -10 c274 -19 556 -65 654 -108 l40 -18 -80 -25 c-214 -68 -493 -98 -961 -105 -449 -7 -743 12 -1009 63 -100 19 -224 54 -231 66 -7 11 30 25 144 54 138 35 394 68 652 83 18 1 46 -22 120 -98z" style="fill: rgb(124, 187, 82); paint-order: fill; stroke: rgb(104, 217, 17);"/>
    <path d="M2360 4063 c-243 -47 -436 -147 -595 -308 -123 -124 -206 -260 -258 -420 -41 -129 -51 -192 -51 -335 0 -143 10 -206 51 -335 166 -514 701 -823 1236 -714 398 81 717 385 824 787 23 86 26 116 26 262 0 146 -3 176 -26 263 -30 112 -95 256 -158 348 -101 150 -296 308 -464 378 -142 60 -214 73 -395 76 -91 2 -176 1 -190 -2z m347 -167 c170 -36 315 -112 440 -230 278 -262 366 -654 226 -1005 -103 -259 -331 -463 -603 -541 -107 -31 -308 -38 -421 -16 -347 71 -626 337 -711 681 -30 124 -30 325 0 438 27 99 89 231 146 310 125 175 337 315 549 361 84 19 289 19 374 2z" style="fill: rgb(124, 187, 82); stroke: rgb(138, 157, 79); paint-order: fill;"/>
    <path fill="rgb(255,0,0)" stroke="rgb(255,0,0)" stroke-width="0" d="M 2185.905 2981.847 C 2173.853 2945.641 2164.831 2891.283 2167.723 2850.029 C 2170.439 2811.298 2176.773 2769.086 2199.542 2740.938 C 2223.357 2711.495 2273.834 2683.687 2310.905 2679.574 C 2323.156 2678.215 2336.49 2679.58 2349.76 2682.68 C 2350.097 2681.216 2350.457 2679.732 2350.838 2678.225 C 2357.092 2653.477 2371.671 2618.755 2391.747 2598.679 C 2411.823 2578.603 2444.378 2563.565 2471.292 2557.77 C 2496.694 2552.301 2522.578 2554.938 2548.565 2562.316 C 2577.077 2570.41 2618.59 2594.862 2634.929 2607.77 C 2644.541 2615.365 2645.201 2622.768 2650.838 2628.225 C 2655.874 2633.099 2659.973 2631.991 2666.747 2639.588 C 2669.569 2642.753 2673.371 2647.328 2677.691 2652.837 C 2698.578 2667.12 2720.097 2685.528 2727.915 2691.861 C 2732.496 2695.571 2731.963 2696.533 2734.733 2698.679 C 2737.879 2701.116 2740.834 2699.944 2746.097 2705.497 C 2758.439 2718.519 2790.026 2764.076 2807.461 2798.679 C 2826.044 2835.563 2846.652 2889.359 2852.915 2921.406 C 2856.855 2941.569 2857.55 2953.806 2854.269 2969.951 C 2858.033 3046.996 2851.246 3185.061 2851.246 3208.871 C 2851.246 3216.044 2850.356 3212.183 2851.246 3217.962 C 2853.68 3233.767 2876.444 3295.465 2878.519 3327.053 C 2880.224 3353.003 2876.694 3375.101 2869.428 3395.235 C 2862.582 3414.203 2851.732 3430.765 2837.61 3445.235 C 2835.13 3447.776 2832.496 3450.316 2829.731 3452.822 C 2828.681 3454.193 2827.613 3455.533 2826.53 3456.839 C 2811.754 3474.657 2792.698 3491.163 2769.712 3500.02 C 2744.339 3509.797 2705.085 3512.415 2678.803 3509.111 C 2656.107 3506.259 2638.399 3499.735 2619.712 3486.384 C 2597.878 3470.784 2570.447 3426.71 2558.348 3415.93 C 2552.809 3410.994 2551.041 3412.759 2546.985 3409.111 C 2544.795 3407.142 2542.42 3404.047 2539.985 3400.684 C 2500.684 3381.905 2447.685 3342.555 2429.566 3327.266 C 2418.953 3318.31 2419.294 3312.268 2413.657 3306.811 C 2408.621 3301.936 2405.393 3303.941 2397.748 3295.448 C 2390.708 3287.627 2376.879 3270.464 2361.886 3250.227 C 2352.817 3246.064 2344.1 3241.054 2335.87 3235.362 C 2314.365 3220.488 2298.055 3202.476 2279.052 3173.999 C 2255.616 3138.88 2218.107 3069.544 2204.847 3026.358 C 2197.253 3013.109 2191.352 2998.21 2185.905 2981.847 Z M 2485.905 2909.119 C 2485.964 2910.071 2486.021 2911.02 2486.077 2911.966 C 2503.554 2936.716 2522.809 2967.365 2539.448 2996.621 C 2540.032 2982.641 2540.85 2969.517 2541.931 2957.649 C 2536.145 2941.824 2530.865 2928.489 2525.642 2921.406 C 2517.583 2910.477 2513.393 2915.765 2505.188 2905.497 C 2501.801 2901.258 2497.146 2895.37 2491.899 2888.358 C 2489.304 2886.979 2486.699 2885.564 2484.092 2884.117 C 2484.845 2893.051 2485.437 2901.505 2485.905 2909.119 Z" style="fill: rgb(166, 209, 48); stroke: rgb(129, 151, 57); stroke-width: 2px;"/>
  </g>
  <path d="M 264.72 132.665 C 233.12 143.065 206.12 163.665 195.12 185.865 L 190.32 195.465 L 190.32 207.565 C 190.32 219.265 190.42 219.965 193.62 226.465 C 195.42 230.165 199.12 235.465 201.82 238.165 L 206.82 243.265 L 206.12 249.165 C 205.82 252.365 206.12 258.765 206.82 263.365 C 207.92 270.065 208.62 272.165 210.92 274.365 C 214.42 277.865 218.12 277.965 221.52 274.565 C 223.82 272.265 224.02 271.465 223.42 266.865 C 221.42 250.165 221.42 249.765 223.02 250.365 C 226.72 251.865 235.92 252.265 241.32 251.265 C 268.82 246.165 284.72 218.865 277.42 189.165 C 274.42 176.865 276.02 164.065 282.72 146.665 C 286.42 137.065 286.52 134.765 283.32 131.665 C 280.12 128.365 277.52 128.565 264.72 132.665 Z M 263.82 150.465 C 263.82 150.665 262.92 154.365 261.82 158.665 C 259.42 168.165 259.22 180.865 261.42 190.665 C 264.82 205.865 262.42 218.265 254.62 226.765 C 249.22 232.665 242.92 235.465 234.82 235.565 C 224.52 235.765 224.32 235.565 227.42 226.965 C 230.62 218.265 238.92 201.365 243.02 195.365 C 247.22 189.165 247.72 184.965 244.52 181.765 C 241.82 179.065 238.02 178.465 234.82 180.165 C 231.22 182.065 220.72 200.765 214.32 216.665 L 211.02 224.565 L 208.92 221.165 C 206.22 216.665 205.42 212.365 206.02 204.765 C 207.42 187.865 224.82 168.865 251.22 155.665 C 261.32 150.565 263.82 149.565 263.82 150.465 Z" style="fill: rgb(124, 187, 82); paint-order: stroke; stroke: rgb(100, 210, 92);"/>
</svg>