<?xml version="1.0" standalone="no"?>
<!DOCTYPE svg PUBLIC "-//W3C//DTD SVG 20010904//EN"
 "http://www.w3.org/TR/2001/REC-SVG-20010904/DTD/svg10.dtd">
<svg version="1.0" xmlns="http://www.w3.org/2000/svg"
 width="512.000000pt" height="512.000000pt" viewBox="0 0 512.000000 512.000000"
 preserveAspectRatio="xMidYMid meet">

<g transform="translate(0.000000,512.000000) scale(0.100000,-0.100000)"
fill="#7EBD77" stroke="none">
<path d="M2380 4950 c-784 -86 -1414 -631 -1605 -1390 -125 -495 -33 -1011
270 -1519 147 -246 336 -485 755 -956 355 -399 598 -698 706 -870 45 -70 63
-70 109 3 106 168 353 472 681 842 374 421 498 571 642 771 347 485 504 997
451 1477 -90 825 -705 1483 -1518 1623 -134 23 -370 32 -491 19z m238 -754
c15 -8 37 -25 49 -38 31 -34 383 -650 383 -671 0 -26 -45 -67 -74 -67 -14 0
-34 11 -48 28 -12 15 -99 161 -193 325 -93 163 -172 297 -175 297 -3 0 -48
-75 -100 -167 -52 -91 -110 -193 -129 -225 l-34 -60 85 46 c98 53 128 57 157
20 27 -34 26 -59 -1 -87 -29 -29 -391 -217 -417 -217 -11 0 -32 10 -46 23
l-27 23 1 234 1 235 27 23 c19 17 33 22 52 17 47 -11 55 -29 61 -124 l5 -89
115 200 c63 110 123 212 134 225 45 58 118 78 174 49z m751 -1057 c102 -56
196 -111 209 -122 43 -40 15 -117 -43 -117 -14 0 -58 18 -97 40 -39 22 -72 39
-74 37 -2 -2 62 -118 143 -257 117 -204 147 -264 151 -301 5 -56 -14 -97 -65
-136 l-36 -28 -424 -3 -423 -3 -25 25 c-30 31 -32 55 -4 90 l20 26 410 0 c320
0 409 3 409 12 0 7 -64 125 -142 261 l-143 248 -7 -90 c-4 -50 -12 -100 -18
-111 -23 -42 -102 -34 -119 12 -4 13 -5 124 -2 246 l6 224 28 24 c15 13 35 24
44 24 9 0 100 -46 202 -101z m-1389 21 c11 -11 20 -30 20 -42 0 -12 -88 -171
-196 -354 -108 -183 -198 -342 -201 -354 -5 -20 -2 -20 293 -20 163 0 295 2
293 4 -2 2 -35 23 -74 46 -81 48 -95 63 -95 101 0 29 40 69 69 69 16 0 329
-183 389 -227 25 -19 32 -31 32 -57 0 -19 -8 -43 -17 -54 -22 -24 -365 -230
-398 -238 -31 -8 -75 34 -75 71 0 32 20 51 103 100 l69 40 -316 5 c-299 5
-316 6 -343 26 -53 39 -75 83 -71 139 4 44 28 92 198 380 106 182 202 342 212
358 24 34 77 38 108 7z"/>
</g>
</svg>
